PathFileType	4	(X/Y/Z)	walk-thru1-2-TP.trc
DataRate	CameraRate	NumFrames	NumMarkers	Units	OrigDataRate	OrigDataStartFrame	OrigNumFrames
120.00	120.00	       4	60	mm	120.00	315	       503
Frame#	Time	Top.Head			Front.Head			Rear.Head			Jaw			C7			R.Clavicle			L.Clavicle			R.Shoulder			L.Shoulder			R.Scapula			L.Scapula			R.Scap.Inf			R.Biceps.Lateral			R.Elbow			R.Elbow.Medial			R.Forearm			R.Ulna			R.Radius			R.Wrist			R.Thumb.M1			R.Thumb.M2			R.Thumb.M3			R.Finger3.M1			R.Finger3.M2			R.Finger3.M3			L.Biceps.Lateral			L.Elbow			L.Elbow.Medial			L.Forearm			L.Ulna			L.Radius			L.Wrist			L.Thumb.M1			L.Thumb.M2			L.Thumb.M3			L.Finger3.M1			L.Finger3.M2			L.Finger3.M3			V.Sacral			R.ASIS			L.ASIS			R.Thigh			R.Thigh.Front			R.Knee			R.Knee.Medial			R.Shank			R.Ankle			R.Ankle.Medial			R.Heel			R.Toe			R.MedFoot			L.Thigh			L.Knee			L.Knee.Medial			L.Shank			L.Ankle			L.Ankle.Medial			L.Heel			L.Toe			L.MedFoot			V_mid_ASIS			V_R_Knee_JC			V_L_Knee_JC			V_R_Elbow_JC			V_L_Elbow_JC			V_R_Ankle_JC			V_L_Ankle_JC			V_R_Wrist_JC			V_L_Wrist_JC			V_R_ScaTrpz_1stMC_JC			V_R_1stMC_1stPP_JC			V_R_1stPP_1stDP_JC			V_R_LunCap_3rdMC_JC			V_R_3rdMC_3rdPP_JC			V_R_3rdPP_3rdMP_JC			V_R_3rdMP_3rdDP_JC			V_L_ScaTrpz_1stMC_JC			V_L_1stMC_1stPP_JC			V_L_1stPP_1stDP_JC			V_L_LunCap_3rdMC_JC			V_L_3rdMC_3rdPP_JC			V_L_3rdPP_3rdMP_JC			V_L_3rdMP_3rdPP_JC			V_ROOT_JC			V_R_Hip_JC			V_L_Hip_JC			V_R_GlenHum_JC			V_L_GlenHum_JC			V_ForeHead_Ctr			V_Vertex			V_Sagit_Lambdoid_Suture			V_R_FrontoTemp			V_L_FrontoTemporal			V_R_ParietalOccip			V_L_ParietalOcciptal			V_R_Temporal			V_L_Temporal			V_mid_FrontRearHead			V_mid_RLGlenHumCtrs			V_C7_vert			V_C1_vert			V_Mid_Hip			
		X1	Y1	Z1	X2	Y2	Z2	X3	Y3	Z3	X4	Y4	Z4	X5	Y5	Z5	X6	Y6	Z6	X7	Y7	Z7	X8	Y8	Z8	X9	Y9	Z9	X10	Y10	Z10	X11	Y11	Z11	X12	Y12	Z12	X13	Y13	Z13	X14	Y14	Z14	X15	Y15	Z15	X16	Y16	Z16	X17	Y17	Z17	X18	Y18	Z18	X19	Y19	Z19	X20	Y20	Z20	X21	Y21	Z21	X22	Y22	Z22	X23	Y23	Z23	X24	Y24	Z24	X25	Y25	Z25	X26	Y26	Z26	X27	Y27	Z27	X28	Y28	Z28	X29	Y29	Z29	X30	Y30	Z30	X31	Y31	Z31	X32	Y32	Z32	X33	Y33	Z33	X34	Y34	Z34	X35	Y35	Z35	X36	Y36	Z36	X37	Y37	Z37	X38	Y38	Z38	X39	Y39	Z39	X40	Y40	Z40	X41	Y41	Z41	X42	Y42	Z42	X43	Y43	Z43	X44	Y44	Z44	X45	Y45	Z45	X46	Y46	Z46	X47	Y47	Z47	X48	Y48	Z48	X49	Y49	Z49	X50	Y50	Z50	X51	Y51	Z51	X52	Y52	Z52	X53	Y53	Z53	X54	Y54	Z54	X55	Y55	Z55	X56	Y56	Z56	X57	Y57	Z57	X58	Y58	Z58	X59	Y59	Z59	X60	Y60	Z60	

315	2.617	277.40393	10.20900	1804.55798	376.50546	21.40204	1691.79700	148.99887	5.96325	1707.32043	330.11252	15.24637	1526.78271	136.42752	5.32613	1570.42126	244.03079	-103.39761	1476.15430	234.51685	123.84954	1480.65613	209.57977	-194.07939	1472.96594	158.26024	213.06781	1491.19299	91.91599	-88.08619	1488.03735	79.29162	80.18565	1492.80566	45.11120	-102.78334	1401.47778	174.53676	-259.25876	1293.26001	152.49933	-283.46930	1138.38049	126.68645	-195.86942	1118.11548	247.32373	-223.72940	1036.22607	234.24277	-266.39572	932.84534	293.84949	-199.57895	913.75958	300.91702	-237.90993	865.35815	309.58286	-191.80682	882.87421	348.35818	-158.74327	847.55383	388.84113	-151.74538	828.51941	350.77582	-233.42487	801.21893	371.15085	-191.24828	752.49310	360.45435	-148.41333	725.70709	118.98508	273.62192	1344.81848	85.37057	317.13242	1173.07715	49.16032	248.03801	1157.15588	149.48322	303.48938	1065.06042	88.76612	320.49796	977.71313	161.27330	280.31665	922.49030	145.67259	314.06705	866.00079	169.07571	269.68542	857.61658	168.70897	233.57664	808.31366	172.17690	240.07359	747.21075	156.76962	330.81024	791.20599	146.41878	308.90985	734.85187	126.64557	286.60767	691.65887	39.16668	8.52555	1095.25366	142.54314	-173.18137	1036.60046	130.12395	202.96609	1038.07056	186.39398	-114.93887	631.07672	254.68973	-22.11956	559.05005	201.57555	-80.30436	500.20364	190.33052	33.61035	505.93924	197.43152	-30.99568	320.63821	78.00495	-57.49381	71.92172	112.15582	39.42740	93.83120	18.79354	2.30484	48.71082	261.11038	-15.49287	48.10075	187.98697	22.12322	70.86095	268.00333	201.78583	673.16296	315.53925	183.83269	529.43958	319.13446	65.97186	524.08936	281.94534	135.32356	333.00287	137.64604	162.71931	115.48325	175.79012	69.87019	146.96394	80.78327	103.75661	115.58610	295.99774	104.14274	59.03930	252.20833	81.22041	90.75721																																																																																																																															
316	2.625	282.28375	10.63574	1805.36548	382.73056	21.67443	1691.38928	154.92316	5.51545	1707.40515	336.13998	15.21984	1526.47302	142.96294	5.06404	1570.72852	249.06076	-102.76028	1476.69092	240.17424	124.07109	1480.30884	215.42941	-194.34537	1472.54419	164.85036	212.71460	1490.52869	98.38744	-88.27959	1488.11011	84.21917	79.86301	1493.01086	49.82711	-102.92828	1401.62610	179.99638	-259.22992	1292.88220	158.54790	-284.17728	1138.37573	132.81746	-197.16618	1117.47327	254.44308	-224.03020	1036.32703	241.72974	-266.74490	932.66064	301.17783	-198.92842	913.68689	307.14996	-238.22035	864.83240	315.80444	-191.53908	882.84180	354.71033	-158.12410	848.55981	396.66318	-150.55692	828.56488	358.23944	-233.98836	801.60626	378.35956	-192.53154	752.00726	367.84189	-148.89670	726.36981	124.56213	274.58261	1344.67993	91.41632	316.90399	1172.12122	55.20930	246.34537	1156.60205	155.17589	303.95001	1064.44702	94.42017	319.47827	977.32117	167.23894	281.37494	922.22516	151.31998	312.21912	865.86237	175.24072	270.02371	856.95087	175.83032	235.00385	807.54303	178.06947	239.99492	746.13593	162.52982	330.16379	790.84509	152.79900	309.78598	734.88080	132.30745	286.74426	691.58844	44.57220	9.44519	1095.25061	147.05429	-173.70892	1036.05029	137.00928	202.74716	1037.69592	190.24004	-114.62998	630.86768	257.61819	-22.30386	558.01282	203.94850	-80.40237	500.16318	191.53979	34.03959	505.79816	197.71410	-30.83521	320.38242	78.14317	-57.53879	72.02909	112.15582	39.42740	93.83120	18.73858	1.96611	49.09591	262.06412	-16.07735	48.53006	187.85953	22.27386	70.58482	275.28967	201.32607	673.36664	324.00836	183.24521	530.36395	327.89972	65.63078	525.37897	294.77249	134.04460	332.91644	156.31136	161.40129	112.02264	194.07544	68.88949	144.08557	100.87182	102.43820	110.46195	315.97412	103.36377	60.46944	271.38705	79.04489	89.93707																																																																																																																															
317	2.633	288.39157	9.73692	1805.64099	388.05801	21.67611	1691.70898	160.88786	6.33079	1706.84607	341.68710	15.66447	1526.46143	146.81314	6.77062	1570.46826	254.65727	-102.71748	1476.01782	246.01250	124.06613	1478.94873	220.98485	-194.99271	1472.00903	169.45467	212.76172	1490.22900	103.41766	-88.21972	1487.83704	90.34505	79.96843	1493.10071	56.35480	-102.53116	1401.06982	186.02151	-260.02283	1293.26477	164.09766	-283.69427	1138.52856	140.05197	-197.48508	1117.85559	260.96689	-223.21223	1037.61023	248.52792	-266.90631	932.56726	307.68649	-199.71165	913.87469	314.25745	-238.27058	864.86823	323.58658	-192.54898	883.58441	362.48166	-158.68112	848.73627	403.64905	-151.75859	829.19464	365.14462	-233.20560	801.78448	385.68338	-192.24144	752.67828	374.76315	-148.37732	727.10431	130.27821	274.19153	1344.16650	95.90651	316.49179	1171.82788	60.93799	245.82582	1156.77051	160.88864	302.06693	1063.64514	101.24632	319.99451	977.70422	173.01767	279.16632	921.95612	158.02629	313.57431	865.56403	179.75052	269.20374	856.61505	182.77567	233.38258	807.69489	184.68854	241.08574	746.90063	169.51883	331.04865	790.69788	159.31520	310.05136	734.59314	139.23508	285.60959	692.13171	50.34840	8.20561	1094.98596	153.55591	-173.16840	1035.82104	141.32886	202.05374	1038.10156	193.16893	-114.41829	630.55829	259.64655	-21.54980	557.08820	206.05693	-80.60417	499.84174	193.64825	34.01331	505.39114	197.27551	-31.33675	319.29160	78.47760	-57.77257	72.46680	112.15582	39.42740	93.83120	18.77410	2.99061	48.89511	260.80112	-16.04417	48.09354	188.27853	22.95857	70.47117	281.23511	200.58549	673.52563	331.23221	182.50691	531.24878	336.06934	64.38076	527.79248	307.61362	133.14484	332.68686	175.21669	161.32997	108.51367	211.69173	67.28644	141.28326	120.79398	101.18205	105.40047	336.88596	101.77639	61.07601	291.24017	80.09279	89.15264																																																																																																																															
318	2.642	294.35065	9.89367	1805.01147	393.50342	20.35848	1691.74011	166.16890	5.97650	1706.28259	347.32428	15.33408	1526.02808	152.58884	5.14208	1570.31262	260.31744	-103.14261	1475.48462	251.50548	124.17355	1478.78760	226.63345	-193.74811	1471.77209	174.75447	212.97125	1490.35547	109.27448	-86.66358	1487.24072	95.86519	79.91248	1492.07544	61.78145	-103.35277	1401.20068	192.15825	-259.16574	1292.36755	170.59019	-283.93185	1137.41553	145.31573	-196.78696	1117.31738	267.72641	-223.78972	1036.40308	254.58730	-266.28214	932.18329	314.35529	-198.59166	914.29199	320.95007	-238.30942	865.00049	329.94525	-192.68054	883.19696	369.76947	-158.80757	848.31635	411.41165	-151.26472	829.62158	372.50940	-233.75819	801.56866	392.65796	-192.11803	753.46265	382.87244	-147.81059	727.30750	134.98125	274.46060	1343.95874	101.86079	317.81110	1171.57800	66.62244	246.34705	1156.44836	166.96077	302.99274	1064.02039	106.60146	320.52542	977.46875	179.57056	279.35361	921.61230	163.50806	313.70471	865.18665	186.70764	270.14261	856.33954	187.72850	233.78963	807.51129	191.46529	240.87372	745.66003	174.15198	330.12753	790.92108	164.26437	307.86203	734.46277	144.95056	284.79147	691.32416	56.53321	8.33169	1095.12170	158.67014	-172.55833	1036.15051	148.29340	202.59247	1037.51941	196.35350	-114.43964	630.68982	262.54370	-21.48353	556.29449	209.11592	-79.77956	499.51028	195.98320	33.55614	504.62244	197.13365	-30.57967	318.79364	78.50916	-58.11074	72.83421	111.75823	38.70390	93.80287	18.68139	1.98191	49.75661	260.76926	-15.87009	48.10540	187.76259	24.91225	69.88865	287.18982	199.80867	673.11432	339.25845	181.35368	532.06128	344.00958	62.32458	528.26801	320.84811	132.18396	332.67712	194.18610	160.50331	105.45702	229.76421	66.54431	139.62210	138.37735	100.00319	100.53606	356.76599	101.83780	62.20781	310.18994	78.27401	89.26003																																																																																																																															
